HIERARCHY
ROOT Hips
{
 OFFSET 0.000000 0.000000 0.000000
 CHANNELS 6 Xposition Yposition Zposition Yrotation Xrotation Zrotation
 JOINT Chest
 {
  OFFSET 0.000000 9.585900 0.002600
  CHANNELS 3 Yrotation Xrotation Zrotation
  JOINT Chest2
  {
   OFFSET 0.000000 9.601200 -0.005300
   CHANNELS 3 Yrotation Xrotation Zrotation
   JOINT Chest3
   {
    OFFSET 0.000000 9.561800 0.000000
    CHANNELS 3 Yrotation Xrotation Zrotation
    JOINT Chest4
    {
     OFFSET 0.000000 9.552100 0.000000
     CHANNELS 3 Yrotation Xrotation Zrotation
     JOINT Neck
     {
      OFFSET 0.000000 14.453000 0.000000
      CHANNELS 3 Yrotation Xrotation Zrotation
      JOINT Head
      {
       OFFSET 0.000000 8.936500 -0.011300
       CHANNELS 3 Yrotation Xrotation Zrotation
       End Site
       {
        OFFSET 0.000000 17.073600 -0.006000
       }
      }
     }
     JOINT RightCollar
     {
      OFFSET -2.921100 9.558500 0.000000
      CHANNELS 3 Yrotation Xrotation Zrotation
      JOINT RightShoulder
      {
       OFFSET -13.519700 0.000000 0.000000
       CHANNELS 3 Yrotation Xrotation Zrotation
       JOINT RightElbow
       {
        OFFSET 0.000000 -29.696600 0.000000
        CHANNELS 3 Yrotation Xrotation Zrotation
        JOINT RightWrist
        {
         OFFSET 0.000000 -24.004700 0.000000
         CHANNELS 3 Yrotation Xrotation Zrotation
         End Site
         {
          OFFSET 0.000000 -17.728500 0.000000
         }
        }
       }
      }
     }
     JOINT LeftCollar
     {
      OFFSET 2.921100 9.558500 0.000000
      CHANNELS 3 Yrotation Xrotation Zrotation
      JOINT LeftShoulder
      {
       OFFSET 13.519700 0.000000 0.000000
       CHANNELS 3 Yrotation Xrotation Zrotation
       JOINT LeftElbow
       {
        OFFSET 0.000000 -29.696600 0.000000
        CHANNELS 3 Yrotation Xrotation Zrotation
        JOINT LeftWrist
        {
         OFFSET 0.000000 -24.004700 0.000000
         CHANNELS 3 Yrotation Xrotation Zrotation
         End Site
         {
          OFFSET 0.000000 -17.728500 0.000000
         }
        }
       }
      }
     }
    }
   }
  }
 }
 JOINT RightHip
 {
  OFFSET -7.771700 -0.012900 -0.001300
  CHANNELS 3 Yrotation Xrotation Zrotation
  JOINT RightKnee
  {
   OFFSET 0.000000 -40.869800 0.001200
   CHANNELS 3 Yrotation Xrotation Zrotation
   JOINT RightAnkle
   {
    OFFSET 0.000000 -39.717900 0.002100
    CHANNELS 3 Yrotation Xrotation Zrotation
    JOINT RightToe
    {
     OFFSET 0.000000 -4.965400 11.033500
     CHANNELS 3 Yrotation Xrotation Zrotation
     End Site
     {
      OFFSET 0.000000 -1.423100 5.872300
     }
    }
   }
  }
 }
 JOINT LeftHip
 {
  OFFSET 7.771700 -0.012900 -0.001300
  CHANNELS 3 Yrotation Xrotation Zrotation
  JOINT LeftKnee
  {
   OFFSET 0.000000 -40.869800 0.001200
   CHANNELS 3 Yrotation Xrotation Zrotation
   JOINT LeftAnkle
   {
    OFFSET 0.000000 -39.717900 0.002100
    CHANNELS 3 Yrotation Xrotation Zrotation
    JOINT LeftToe
    {
     OFFSET 0.000000 -4.965400 11.033500
     CHANNELS 3 Yrotation Xrotation Zrotation
     End Site
     {
      OFFSET 0.000000 -1.423100 5.872300
     }
    }
   }
  }
 }
}
MOTION
Frames: 17
Frame Time: 0.008333
0.000000 85.388000 0.000000 0.000000 -5.767877 0.000000 0.000000 11.653817 0.000000 0.000000 -5.885947 0.000000 0.000000 -0.000000 0.000000 0.000000 -0.000000 0.000000 0.000000 12.528835 0.000000 0.000000 0.711642 0.000000 0.000000 -0.000000 0.000000 0.000000 0.000000 -90.000000 0.000000 -2.309062 0.000000 0.000000 2.309062 0.000000 0.000000 -0.000000 0.000000 0.000000 -0.000000 90.000000 0.000000 -2.309062 0.000000 0.000000 2.309062 0.000000 0.000000 8.520406 0.000000 0.000000 1.905762 0.000000 -0.000000 -4.658285 0.000000 0.000000 -0.000000 0.000000 0.000000 8.520406 0.000000 0.000000 1.905762 0.000000 -0.000000 -4.658285 0.000000 0.000000 -0.000000 0.000000
-40.123349 62.004464 12.860740 176.762580 -49.372330 0.269860 4.000288 26.848069 2.906172 0.529232 4.650888 0.479982 0.856241 7.231535 0.741599 2.984663 21.830143 2.736221 3.367922 19.987121 1.269979 5.727812 1.488279 1.361813 5.842995 7.447105 6.112714 1.817489 -14.956832 -19.027079 -127.944751 -56.426438 160.897184 16.613896 -0.489221 -7.494242 -8.470422 3.756963 0.872995 -4.634733 -9.864333 14.228269 -174.811449 -65.463381 163.082739 -2.798746 -17.137297 9.255334 3.962026 -17.609783 -7.256574 -1.037300 61.733541 -4.870624 1.421274 -7.441687 10.543229 0.214981 -0.480848 0.104133 -3.715181 -14.612090 1.190589 26.396430 76.799863 26.958426 0.894109 -12.309159 -3.985106 0.239193 0.686424 0.083158
-40.124331 62.007138 12.860843 176.759528 -49.424737 0.276376 3.998301 26.847369 2.890987 0.531784 4.651632 0.478192 0.852642 7.233313 0.737830 2.987626 21.830833 2.726920 3.341603 20.083449 1.293428 5.738342 1.591399 1.411500 5.839984 7.463307 6.114412 1.823714 -14.963695 -18.996257 -127.936257 -56.452081 160.889151 16.623348 -0.488739 -7.487551 -8.498249 3.772965 0.817775 -4.694399 -9.874297 14.295062 -174.796283 -65.559744 163.031182 -2.846931 -17.049916 9.161424 3.964893 -17.552773 -7.253452 -1.038821 61.727348 -4.875436 1.415849 -7.443938 10.543575 0.215452 -0.479409 0.104971 -3.733770 -14.552336 1.158162 26.447306 76.779890 27.022231 0.904883 -12.307018 -4.006916 0.239745 0.688603 0.083080
-40.124145 62.009792 12.861588 176.756702 -49.482188 0.276225 4.000912 26.877820 2.890291 0.529703 4.625986 0.470160 0.853868 7.248530 0.737684 2.963457 21.776190 2.671814 3.373697 20.189264 1.358858 5.721678 1.715580 1.466719 5.869003 7.534392 6.168790 1.829369 -14.977179 -18.981569 -127.941034 -56.473613 160.884907 16.609535 -0.488118 -7.478703 -8.489819 3.852319 0.818336 -4.763613 -9.899485 14.332388 -174.781210 -65.653714 162.985056 -2.897105 -16.961690 9.039754 3.961778 -17.492214 -7.239819 -1.042314 61.721021 -4.886787 1.412350 -7.443331 10.543921 0.217119 -0.480761 0.106374 -3.740706 -14.491107 1.147233 26.478555 76.770114 27.057751 0.902495 -12.303365 -4.008658 0.238412 0.685130 0.081298
-40.124690 62.012415 12.862855 176.750708 -49.543297 0.283693 4.003175 26.912192 2.883404 0.527361 4.561923 0.442361 0.860234 7.326787 0.769135 2.954453 21.744638 2.639664 3.390056 20.236830 1.395885 5.691314 1.841867 1.524275 5.876071 7.560852 6.191635 1.832615 -14.972516 -18.966185 -127.971029 -56.481428 160.910472 16.608868 -0.479432 -7.473429 -8.484756 3.896233 0.833756 -4.841063 -9.940007 14.334493 -174.755521 -65.739026 162.932085 -2.945573 -16.879807 8.897573 3.962993 -17.429576 -7.234930 -1.044007 61.716865 -4.892832 1.412543 -7.439831 10.547107 0.220558 -0.485088 0.104005 -3.759039 -14.422744 1.120987 26.553203 76.749475 27.134784 0.904629 -12.305537 -4.009494 0.237353 0.690835 0.067639
-40.124861 62.014312 12.865247 176.743532 -49.601432 0.290597 4.004800 26.916470 2.863185 0.529584 4.602618 0.458294 0.858216 7.290021 0.747807 2.957631 21.751505 2.634598 3.386703 20.294893 1.422724 5.678040 1.948552 1.583622 5.877719 7.573370 6.191061 1.840014 -14.986308 -18.933769 -127.963966 -56.501719 160.890302 16.618320 -0.470461 -7.461487 -8.499935 3.921484 0.811727 -4.881587 -9.946972 14.370883 -174.707168 -65.791971 162.883944 -2.964379 -16.815744 8.720264 3.964726 -17.371625 -7.226658 -1.050370 61.712393 -4.904641 1.411592 -7.430700 10.549322 0.223755 -0.491276 0.103708 -3.776547 -14.359245 1.098097 26.620439 76.730703 27.202522 0.915196 -12.303580 -4.017831 0.228786 0.693684 0.062809
-40.123770 62.015673 12.868605 176.732764 -49.657116 0.293461 4.013860 26.896757 2.850678 0.530204 4.628443 0.463549 0.857590 7.270808 0.734143 2.960366 21.778985 2.636826 3.367137 20.363764 1.446150 5.680218 2.036889 1.638805 5.864191 7.577752 6.176335 1.862026 -15.021140 -18.900668 -127.911515 -56.533848 160.831258 16.626256 -0.453628 -7.454245 -8.547429 3.911176 0.731922 -4.858304 -9.894558 14.464496 -174.738344 -65.810863 162.842598 -3.015216 -16.771687 8.616281 3.967038 -17.315692 -7.208360 -1.064740 61.703645 -4.927253 1.413489 -7.420218 10.557410 0.222927 -0.495460 0.100447 -3.786482 -14.300221 1.086053 26.662322 76.718825 27.249530 0.922648 -12.300444 -4.027360 0.229080 0.693212 0.062353
-40.122952 62.016791 12.872548 176.732951 -49.712027 0.290294 4.015889 26.927326 2.850962 0.530077 4.605931 0.454144 0.858893 7.294958 0.741070 2.948987 21.764024 2.613496 3.365253 20.417436 1.475232 5.667868 2.135558 1.694061 5.869908 7.600393 6.195908 1.875360 -15.029869 -18.892662 -127.986299 -56.541638 160.888136 16.610765 -0.427350 -7.442452 -8.546877 3.937086 0.728124 -4.915124 -9.919374 14.476023 -174.645041 -65.859426 162.716654 -3.058425 -16.742190 8.542442 3.963513 -17.260108 -7.194737 -1.074087 61.695887 -4.940924 1.411724 -7.411248 10.562045 0.222271 -0.498180 0.098168 -3.794543 -14.243731 1.076585 26.639077 76.711543 27.237227 0.925524 -12.292296 -4.039325 0.234056 0.690727 0.069251
-40.121699 62.018291 12.876518 176.735777 -49.770667 0.283235 4.006471 26.898520 2.828200 0.534976 4.646368 0.465288 0.851561 7.266680 0.720482 2.961610 21.809550 2.629865 3.350044 20.467234 1.493359 5.683391 2.171659 1.716574 5.868106 7.600896 6.192313 1.888272 -15.049506 -18.875868 -127.928495 -56.561587 160.827082 16.643982 -0.423776 -7.429286 -8.549669 3.951729 0.718150 -5.006649 -9.975150 14.479031 -174.479838 -65.944581 162.560102 -3.087666 -16.722389 8.475725 3.958071 -17.202057 -7.181128 -1.080982 61.690246 -4.951178 1.419895 -7.398876 10.569252 0.225165 -0.505775 0.095311 -3.804909 -14.183376 1.067951 26.614196 76.705404 27.224887 0.930989 -12.285344 -4.053888 0.247115 0.689543 0.076399
-40.121452 62.019369 12.881039 176.736799 -49.826529 0.284069 4.004583 26.941922 2.825594 0.529305 4.563345 0.428096 0.861090 7.350631 0.757410 2.950837 21.784082 2.594956 3.361360 20.510958 1.530147 5.645694 2.305358 1.789574 5.871345 7.608091 6.206086 1.896361 -15.065036 -18.864137 -127.923639 -56.576461 160.818338 16.692994 -0.417922 -7.399647 -8.577182 3.964753 0.692851 -5.045594 -9.998057 14.512067 -174.392729 -66.009704 162.455613 -3.106895 -16.704900 8.423964 3.956489 -17.145611 -7.174200 -1.081007 61.682879 -4.954100 1.415345 -7.388720 10.571749 0.227396 -0.507889 0.095576 -3.821351 -14.126537 1.043016 26.658477 76.689791 27.278429 0.947678 -12.274746 -4.068275 0.238466 0.685979 0.081945
-40.121191 62.021129 12.885135 176.731552 -49.888188 0.290551 4.004236 26.952588 2.806632 0.534778 4.565635 0.426169 0.855995 7.356031 0.753852 2.953355 21.779808 2.571456 3.375098 20.564038 1.580128 5.601899 2.431472 1.861732 5.854555 7.590386 6.200817 1.914218 -15.089726 -18.835532 -127.907130 -56.602807 160.811285 16.646020 -0.387983 -7.415789 -8.606027 3.993209 0.684748 -5.077495 -10.015219 14.543875 -174.356746 -66.069898 162.393626 -3.120771 -16.686846 8.384541 3.959013 -17.083223 -7.167894 -1.096452 61.675294 -4.969459 1.414918 -7.379134 10.572706 0.230607 -0.509436 0.096001 -3.831928 -14.061167 1.020763 26.683463 76.675176 27.309597 0.959149 -12.270260 -4.077257 0.229232 0.688064 0.079484
-40.122451 62.020338 12.891373 176.722188 -49.930248 0.309422 4.007502 26.890988 2.762394 0.532574 4.644705 0.452108 0.860883 7.337012 0.737200 2.956519 21.802605 2.583144 3.359181 20.598221 1.586882 5.574672 2.507980 1.922258 5.843370 7.580422 6.194127 1.923321 -15.108387 -18.820800 -127.895123 -56.617451 160.801519 16.633184 -0.375975 -7.416163 -8.691555 3.955497 0.619328 -5.070468 -9.995343 14.602705 -174.349883 -66.137989 162.356355 -3.139851 -16.665968 8.355418 3.966850 -17.042511 -7.173196 -1.105020 61.669395 -4.980287 1.410024 -7.375075 10.575019 0.235556 -0.504437 0.095741 -3.844674 -14.015424 0.978948 26.753688 76.649552 27.389225 0.980979 -12.270495 -4.092565 0.212229 0.700553 0.072865
-40.121142 62.019430 12.897839 176.711362 -49.971718 0.314905 4.013802 26.892978 2.756125 0.534637 4.658375 0.453965 0.861086 7.315432 0.723317 2.946668 21.798554 2.563164 3.334273 20.653630 1.613359 5.574980 2.573438 1.972324 5.853527 7.608035 6.219699 1.930795 -15.112589 -18.807841 -127.889259 -56.625142 160.795679 16.681814 -0.390004 -7.387362 -8.708813 3.982490 0.615088 -5.109314 -10.013036 14.620710 -174.366245 -66.213413 162.337351 -3.167695 -16.639138 8.324442 3.971297 -17.003113 -7.164091 -1.109229 61.661734 -4.985380 1.411409 -7.368225 10.576421 0.234054 -0.501594 0.095898 -3.844223 -13.974850 0.972973 26.778034 76.643721 27.414176 0.988018 -12.271772 -4.089916 0.199768 0.704531 0.068967
-40.115231 62.020858 12.902541 176.704316 -50.031548 0.291343 4.033441 26.937739 2.789109 0.527654 4.585886 0.426595 0.864481 7.353736 0.733418 2.940374 21.795651 2.542385 3.331642 20.697568 1.645903 5.553709 2.624035 2.016707 5.873661 7.647248 6.255489 1.935216 -15.129131 -18.809339 -127.883908 -56.632626 160.791805 16.711488 -0.399131 -7.367662 -8.719029 4.007716 0.609581 -5.118933 -10.006536 14.643948 -174.458557 -66.257610 162.370866 -3.200012 -16.602249 8.282524 3.964274 -16.943987 -7.124931 -1.119058 61.652811 -4.996758 1.434307 -7.373795 10.589739 0.206488 -0.492708 0.085744 -3.855651 -13.911414 0.990951 26.811061 76.633850 27.454220 1.006207 -12.250409 -4.097043 0.181321 0.687184 0.062545
-40.117932 62.022020 12.906982 176.704532 -50.088750 0.314044 4.016069 26.945820 2.749389 0.528063 4.577261 0.418856 0.864931 7.369262 0.736054 2.943766 21.799129 2.532951 3.320311 20.719279 1.668441 5.526580 2.663557 2.061678 5.871987 7.652920 6.262619 1.942423 -15.137924 -18.795502 -127.873506 -56.644182 160.788062 16.720570 -0.394879 -7.354792 -8.736709 4.018306 0.598617 -5.180182 -10.035325 14.656148 -174.454797 -66.345320 162.344002 -3.232982 -16.554991 8.231136 3.960747 -16.885849 -7.135113 -1.132639 61.644614 -5.020053 1.410013 -7.349963 10.586890 0.237078 -0.503795 0.094789 -3.862303 -13.852249 0.954255 26.850910 76.614584 27.498313 0.979342 -12.263348 -4.115058 0.210860 0.707840 0.073473
-40.115421 62.026899 12.908503 176.697903 -50.174401 0.311808 4.018390 26.957561 2.734530 0.529736 4.602364 0.426296 0.868025 7.373459 0.733156 2.940732 21.800178 2.525706 3.300612 20.731235 1.686598 5.537340 2.699069 2.084495 5.873986 7.657191 6.265173 1.952875 -15.186358 -18.799600 -127.849617 -56.662450 160.769372 16.678155 -0.365238 -7.362746 -8.737122 4.046380 0.602773 -5.250251 -10.081491 14.654818 -174.441443 -66.428378 162.311428 -3.266717 -16.503993 8.170004 3.954420 -16.797886 -7.116616 -1.143623 61.635291 -5.034018 1.418379 -7.334500 10.591863 0.238076 -0.513892 0.089950 -3.867727 -13.761126 0.951114 26.873036 76.603006 27.518512 0.988615 -12.252172 -4.113862 0.205133 0.700308 0.066420
-40.114906 62.028574 12.912455 176.708147 -50.234691 0.307147 4.009318 26.993316 2.725916 0.525147 4.577007 0.415102 0.871616 7.377436 0.731646 2.931336 21.801651 2.515384 3.311855 20.759780 1.712721 5.473263 2.703023 2.134805 5.882222 7.666623 6.264888 1.956062 -15.195408 -18.784338 -127.838049 -56.667617 160.766088 16.666027 -0.349689 -7.361208 -8.756395 4.042714 0.582784 -5.279805 -10.080170 14.676781 -174.422630 -66.492787 162.282233 -3.289284 -16.464959 8.088502 3.943278 -16.737357 -7.112801 -1.156637 61.628759 -5.047398 1.422700 -7.321251 10.596374 0.241446 -0.519023 0.088393 -3.877935 -13.697554 0.940513 26.855296 76.586188 27.505718 0.983831 -12.241004 -4.122684 0.214822 0.697741 0.078532
